<mxfile host="app.diagrams.net" modified="2023-06-15T23:47:16.188Z" agent="Mozilla/5.0 (X11; Linux x86_64) AppleWebKit/537.36 (KHTML, like Gecko) Chrome/114.0.0.0 Safari/537.36" etag="fjsOT7vrNTMPHeu9dDiQ" version="21.4.0" type="device">
  <diagram id="m3ZVdtww55urzHB-qkZ6" name="Página-1">
    <mxGraphModel dx="3772" dy="1642" grid="1" gridSize="10" guides="1" tooltips="1" connect="1" arrows="1" fold="1" page="1" pageScale="1" pageWidth="1300" pageHeight="1500" math="0" shadow="0">
      <root>
        <mxCell id="0" />
        <mxCell id="1" parent="0" />
        <mxCell id="wLBLN3FvD4leMZRyrCMp-13" style="edgeStyle=orthogonalEdgeStyle;rounded=1;orthogonalLoop=1;jettySize=auto;html=1;strokeWidth=2;fontFamily=JetBrains Mono;fontSource=https%3A%2F%2Ffonts.googleapis.com%2Fcss%3Ffamily%3DJetBrains%2BMono;fontSize=20;fontColor=default;" parent="1" source="wLBLN3FvD4leMZRyrCMp-1" target="wLBLN3FvD4leMZRyrCMp-4" edge="1">
          <mxGeometry relative="1" as="geometry" />
        </mxCell>
        <mxCell id="wLBLN3FvD4leMZRyrCMp-14" style="edgeStyle=orthogonalEdgeStyle;rounded=1;orthogonalLoop=1;jettySize=auto;html=1;strokeWidth=2;fontFamily=JetBrains Mono;fontSource=https%3A%2F%2Ffonts.googleapis.com%2Fcss%3Ffamily%3DJetBrains%2BMono;fontSize=20;fontColor=default;" parent="1" source="wLBLN3FvD4leMZRyrCMp-1" target="wLBLN3FvD4leMZRyrCMp-2" edge="1">
          <mxGeometry relative="1" as="geometry" />
        </mxCell>
        <mxCell id="wLBLN3FvD4leMZRyrCMp-40" style="edgeStyle=orthogonalEdgeStyle;rounded=1;orthogonalLoop=1;jettySize=auto;html=1;entryX=1;entryY=0.5;entryDx=0;entryDy=0;strokeWidth=2;fontFamily=JetBrains Mono;fontSource=https%3A%2F%2Ffonts.googleapis.com%2Fcss%3Ffamily%3DJetBrains%2BMono;fontSize=20;fontColor=default;" parent="1" source="wLBLN3FvD4leMZRyrCMp-1" target="wLBLN3FvD4leMZRyrCMp-32" edge="1">
          <mxGeometry relative="1" as="geometry">
            <Array as="points">
              <mxPoint x="710" y="813" />
            </Array>
          </mxGeometry>
        </mxCell>
        <mxCell id="wLBLN3FvD4leMZRyrCMp-41" style="edgeStyle=orthogonalEdgeStyle;rounded=1;orthogonalLoop=1;jettySize=auto;html=1;entryX=0;entryY=0.5;entryDx=0;entryDy=0;strokeWidth=2;fontFamily=JetBrains Mono;fontSource=https%3A%2F%2Ffonts.googleapis.com%2Fcss%3Ffamily%3DJetBrains%2BMono;fontSize=20;fontColor=default;" parent="1" source="wLBLN3FvD4leMZRyrCMp-1" target="wLBLN3FvD4leMZRyrCMp-33" edge="1">
          <mxGeometry relative="1" as="geometry">
            <Array as="points">
              <mxPoint x="710" y="813" />
            </Array>
          </mxGeometry>
        </mxCell>
        <mxCell id="wLBLN3FvD4leMZRyrCMp-43" style="edgeStyle=orthogonalEdgeStyle;rounded=1;orthogonalLoop=1;jettySize=auto;html=1;entryX=1;entryY=0.5;entryDx=0;entryDy=0;strokeWidth=2;fontFamily=JetBrains Mono;fontSource=https%3A%2F%2Ffonts.googleapis.com%2Fcss%3Ffamily%3DJetBrains%2BMono;fontSize=20;fontColor=default;" parent="1" source="wLBLN3FvD4leMZRyrCMp-1" target="wLBLN3FvD4leMZRyrCMp-42" edge="1">
          <mxGeometry relative="1" as="geometry">
            <Array as="points">
              <mxPoint x="710" y="465" />
            </Array>
          </mxGeometry>
        </mxCell>
        <mxCell id="wLBLN3FvD4leMZRyrCMp-50" style="edgeStyle=orthogonalEdgeStyle;rounded=1;orthogonalLoop=1;jettySize=auto;html=1;entryX=1;entryY=0.5;entryDx=0;entryDy=0;strokeWidth=2;fontFamily=JetBrains Mono;fontSource=https%3A%2F%2Ffonts.googleapis.com%2Fcss%3Ffamily%3DJetBrains%2BMono;fontSize=20;fontColor=none;" parent="1" source="wLBLN3FvD4leMZRyrCMp-1" target="wLBLN3FvD4leMZRyrCMp-48" edge="1">
          <mxGeometry relative="1" as="geometry">
            <Array as="points">
              <mxPoint x="710" y="618" />
            </Array>
          </mxGeometry>
        </mxCell>
        <mxCell id="wLBLN3FvD4leMZRyrCMp-53" style="edgeStyle=orthogonalEdgeStyle;rounded=1;orthogonalLoop=1;jettySize=auto;html=1;entryX=1;entryY=0.5;entryDx=0;entryDy=0;strokeWidth=2;fontFamily=JetBrains Mono;fontSource=https%3A%2F%2Ffonts.googleapis.com%2Fcss%3Ffamily%3DJetBrains%2BMono;fontSize=20;fontColor=none;" parent="1" source="wLBLN3FvD4leMZRyrCMp-1" target="wLBLN3FvD4leMZRyrCMp-52" edge="1">
          <mxGeometry relative="1" as="geometry">
            <Array as="points">
              <mxPoint x="710" y="963" />
              <mxPoint x="620" y="963" />
            </Array>
          </mxGeometry>
        </mxCell>
        <mxCell id="wLBLN3FvD4leMZRyrCMp-1" value="Home" style="rounded=1;whiteSpace=wrap;html=1;fontFamily=JetBrains Mono;fontSource=https%3A%2F%2Ffonts.googleapis.com%2Fcss%3Ffamily%3DJetBrains%2BMono;fontSize=20;fontColor=default;labelBackgroundColor=none;strokeWidth=2;aspect=fixed;" parent="1" vertex="1">
          <mxGeometry x="635" y="185" width="150" height="75" as="geometry" />
        </mxCell>
        <mxCell id="wLBLN3FvD4leMZRyrCMp-24" style="edgeStyle=orthogonalEdgeStyle;rounded=1;orthogonalLoop=1;jettySize=auto;html=1;strokeWidth=2;fontFamily=JetBrains Mono;fontSource=https%3A%2F%2Ffonts.googleapis.com%2Fcss%3Ffamily%3DJetBrains%2BMono;fontSize=20;fontColor=none;" parent="1" source="wLBLN3FvD4leMZRyrCMp-2" target="wLBLN3FvD4leMZRyrCMp-18" edge="1">
          <mxGeometry relative="1" as="geometry" />
        </mxCell>
        <mxCell id="wLBLN3FvD4leMZRyrCMp-35" style="edgeStyle=orthogonalEdgeStyle;rounded=1;orthogonalLoop=1;jettySize=auto;html=1;strokeWidth=2;fontFamily=JetBrains Mono;fontSource=https%3A%2F%2Ffonts.googleapis.com%2Fcss%3Ffamily%3DJetBrains%2BMono;fontSize=20;fontColor=default;" parent="1" source="wLBLN3FvD4leMZRyrCMp-2" target="wLBLN3FvD4leMZRyrCMp-34" edge="1">
          <mxGeometry relative="1" as="geometry" />
        </mxCell>
        <mxCell id="wLBLN3FvD4leMZRyrCMp-2" value="Login" style="rounded=1;whiteSpace=wrap;html=1;fontFamily=JetBrains Mono;fontSource=https%3A%2F%2Ffonts.googleapis.com%2Fcss%3Ffamily%3DJetBrains%2BMono;fontSize=20;fontColor=default;labelBackgroundColor=none;strokeWidth=2;aspect=fixed;" parent="1" vertex="1">
          <mxGeometry x="850" y="275" width="150" height="75" as="geometry" />
        </mxCell>
        <mxCell id="wLBLN3FvD4leMZRyrCMp-25" style="edgeStyle=orthogonalEdgeStyle;rounded=1;orthogonalLoop=1;jettySize=auto;html=1;strokeWidth=2;fontFamily=JetBrains Mono;fontSource=https%3A%2F%2Ffonts.googleapis.com%2Fcss%3Ffamily%3DJetBrains%2BMono;fontSize=20;fontColor=none;" parent="1" source="wLBLN3FvD4leMZRyrCMp-4" target="wLBLN3FvD4leMZRyrCMp-1" edge="1">
          <mxGeometry relative="1" as="geometry">
            <Array as="points">
              <mxPoint x="680" y="313" />
            </Array>
          </mxGeometry>
        </mxCell>
        <mxCell id="wLBLN3FvD4leMZRyrCMp-38" style="edgeStyle=orthogonalEdgeStyle;rounded=1;orthogonalLoop=1;jettySize=auto;html=1;strokeWidth=2;fontFamily=JetBrains Mono;fontSource=https%3A%2F%2Ffonts.googleapis.com%2Fcss%3Ffamily%3DJetBrains%2BMono;fontSize=20;fontColor=default;" parent="1" source="wLBLN3FvD4leMZRyrCMp-4" target="wLBLN3FvD4leMZRyrCMp-37" edge="1">
          <mxGeometry relative="1" as="geometry" />
        </mxCell>
        <mxCell id="wLBLN3FvD4leMZRyrCMp-4" value="Cadastro" style="rounded=1;whiteSpace=wrap;html=1;fontFamily=JetBrains Mono;fontSource=https%3A%2F%2Ffonts.googleapis.com%2Fcss%3Ffamily%3DJetBrains%2BMono;fontSize=20;fontColor=default;labelBackgroundColor=none;strokeWidth=2;aspect=fixed;" parent="1" vertex="1">
          <mxGeometry x="420" y="275" width="150" height="75" as="geometry" />
        </mxCell>
        <mxCell id="wLBLN3FvD4leMZRyrCMp-26" style="edgeStyle=orthogonalEdgeStyle;rounded=1;orthogonalLoop=1;jettySize=auto;html=1;strokeWidth=2;fontFamily=JetBrains Mono;fontSource=https%3A%2F%2Ffonts.googleapis.com%2Fcss%3Ffamily%3DJetBrains%2BMono;fontSize=20;fontColor=none;" parent="1" source="wLBLN3FvD4leMZRyrCMp-18" target="wLBLN3FvD4leMZRyrCMp-1" edge="1">
          <mxGeometry relative="1" as="geometry">
            <Array as="points">
              <mxPoint x="740" y="465" />
            </Array>
          </mxGeometry>
        </mxCell>
        <mxCell id="wLBLN3FvD4leMZRyrCMp-27" value="Não" style="edgeLabel;html=1;align=center;verticalAlign=middle;resizable=0;points=[];fontSize=20;fontFamily=JetBrains Mono;fontColor=default;labelBackgroundColor=none;fontSource=https%3A%2F%2Ffonts.googleapis.com%2Fcss%3Ffamily%3DJetBrains%2BMono;rounded=1;" parent="wLBLN3FvD4leMZRyrCMp-26" vertex="1" connectable="0">
          <mxGeometry x="-0.7285" y="1" relative="1" as="geometry">
            <mxPoint x="23" y="-21" as="offset" />
          </mxGeometry>
        </mxCell>
        <mxCell id="wLBLN3FvD4leMZRyrCMp-29" style="edgeStyle=orthogonalEdgeStyle;rounded=1;orthogonalLoop=1;jettySize=auto;html=1;strokeWidth=2;fontFamily=JetBrains Mono;fontSource=https%3A%2F%2Ffonts.googleapis.com%2Fcss%3Ffamily%3DJetBrains%2BMono;fontSize=20;fontColor=default;" parent="1" source="wLBLN3FvD4leMZRyrCMp-18" target="wLBLN3FvD4leMZRyrCMp-28" edge="1">
          <mxGeometry relative="1" as="geometry" />
        </mxCell>
        <mxCell id="wLBLN3FvD4leMZRyrCMp-30" value="Sim" style="edgeLabel;html=1;align=center;verticalAlign=middle;resizable=0;points=[];fontSize=20;fontFamily=JetBrains Mono;fontColor=default;fontSource=https%3A%2F%2Ffonts.googleapis.com%2Fcss%3Ffamily%3DJetBrains%2BMono;rounded=1;" parent="wLBLN3FvD4leMZRyrCMp-29" vertex="1" connectable="0">
          <mxGeometry x="-0.25" y="-1" relative="1" as="geometry">
            <mxPoint x="26" as="offset" />
          </mxGeometry>
        </mxCell>
        <mxCell id="wLBLN3FvD4leMZRyrCMp-18" value="Tem 2FA ativo?" style="rhombus;whiteSpace=wrap;html=1;rounded=1;labelBackgroundColor=none;strokeWidth=2;fontFamily=JetBrains Mono;fontSource=https%3A%2F%2Ffonts.googleapis.com%2Fcss%3Ffamily%3DJetBrains%2BMono;fontSize=20;fontColor=default;aspect=fixed;" parent="1" vertex="1">
          <mxGeometry x="850" y="390" width="150" height="150" as="geometry" />
        </mxCell>
        <mxCell id="wLBLN3FvD4leMZRyrCMp-22" style="edgeStyle=orthogonalEdgeStyle;rounded=1;orthogonalLoop=1;jettySize=auto;html=1;strokeWidth=2;fontFamily=JetBrains Mono;fontSource=https%3A%2F%2Ffonts.googleapis.com%2Fcss%3Ffamily%3DJetBrains%2BMono;fontSize=20;fontColor=none;" parent="1" source="wLBLN3FvD4leMZRyrCMp-20" target="wLBLN3FvD4leMZRyrCMp-1" edge="1">
          <mxGeometry relative="1" as="geometry" />
        </mxCell>
        <mxCell id="wLBLN3FvD4leMZRyrCMp-20" value="" style="ellipse;shape=startState;fillColor=#000000;strokeColor=#FFFFFF;rounded=1;labelBackgroundColor=none;strokeWidth=2;fontFamily=JetBrains Mono;fontSource=https%3A%2F%2Ffonts.googleapis.com%2Fcss%3Ffamily%3DJetBrains%2BMono;fontSize=20;fontColor=none;noLabel=1;aspect=fixed;" parent="1" vertex="1">
          <mxGeometry x="685" y="55" width="50" height="50" as="geometry" />
        </mxCell>
        <mxCell id="wLBLN3FvD4leMZRyrCMp-31" style="edgeStyle=orthogonalEdgeStyle;rounded=1;orthogonalLoop=1;jettySize=auto;html=1;strokeWidth=2;fontFamily=JetBrains Mono;fontSource=https%3A%2F%2Ffonts.googleapis.com%2Fcss%3Ffamily%3DJetBrains%2BMono;fontSize=20;fontColor=default;" parent="1" source="wLBLN3FvD4leMZRyrCMp-28" target="wLBLN3FvD4leMZRyrCMp-1" edge="1">
          <mxGeometry relative="1" as="geometry">
            <Array as="points">
              <mxPoint x="740" y="617" />
            </Array>
          </mxGeometry>
        </mxCell>
        <mxCell id="wLBLN3FvD4leMZRyrCMp-28" value="Código do 2FA" style="rounded=1;whiteSpace=wrap;html=1;fontFamily=JetBrains Mono;fontSource=https%3A%2F%2Ffonts.googleapis.com%2Fcss%3Ffamily%3DJetBrains%2BMono;fontSize=20;fontColor=default;labelBackgroundColor=none;strokeWidth=2;aspect=fixed;" parent="1" vertex="1">
          <mxGeometry x="850" y="580" width="150" height="75" as="geometry" />
        </mxCell>
        <mxCell id="9fFekz7WtnFR7h1ZeHvl-2" style="edgeStyle=orthogonalEdgeStyle;rounded=1;orthogonalLoop=1;jettySize=auto;html=1;strokeWidth=2;fontFamily=JetBrains Mono;fontSource=https%3A%2F%2Ffonts.googleapis.com%2Fcss%3Ffamily%3DJetBrains%2BMono;" edge="1" parent="1" source="wLBLN3FvD4leMZRyrCMp-32" target="9fFekz7WtnFR7h1ZeHvl-1">
          <mxGeometry relative="1" as="geometry" />
        </mxCell>
        <mxCell id="wLBLN3FvD4leMZRyrCMp-32" value="Carteira de ações" style="rounded=1;whiteSpace=wrap;html=1;fontFamily=JetBrains Mono;fontSource=https%3A%2F%2Ffonts.googleapis.com%2Fcss%3Ffamily%3DJetBrains%2BMono;fontSize=20;fontColor=default;labelBackgroundColor=none;strokeWidth=2;aspect=fixed;flipV=0;" parent="1" vertex="1">
          <mxGeometry x="420" y="775" width="150" height="75" as="geometry" />
        </mxCell>
        <mxCell id="9fFekz7WtnFR7h1ZeHvl-15" style="edgeStyle=orthogonalEdgeStyle;rounded=1;orthogonalLoop=1;jettySize=auto;html=1;strokeWidth=2;" edge="1" parent="1" source="wLBLN3FvD4leMZRyrCMp-33" target="9fFekz7WtnFR7h1ZeHvl-14">
          <mxGeometry relative="1" as="geometry" />
        </mxCell>
        <mxCell id="wLBLN3FvD4leMZRyrCMp-33" value="Home Broker (lista de empresas para comprar)" style="rounded=1;whiteSpace=wrap;html=1;fontFamily=JetBrains Mono;fontSource=https%3A%2F%2Ffonts.googleapis.com%2Fcss%3Ffamily%3DJetBrains%2BMono;fontSize=20;fontColor=default;labelBackgroundColor=none;strokeWidth=2;" parent="1" vertex="1">
          <mxGeometry x="840" y="757.5" width="170" height="110" as="geometry" />
        </mxCell>
        <mxCell id="wLBLN3FvD4leMZRyrCMp-36" style="edgeStyle=orthogonalEdgeStyle;rounded=1;orthogonalLoop=1;jettySize=auto;html=1;entryX=1;entryY=0.25;entryDx=0;entryDy=0;strokeWidth=2;fontFamily=JetBrains Mono;fontSource=https%3A%2F%2Ffonts.googleapis.com%2Fcss%3Ffamily%3DJetBrains%2BMono;fontSize=20;fontColor=default;" parent="1" source="wLBLN3FvD4leMZRyrCMp-34" target="wLBLN3FvD4leMZRyrCMp-1" edge="1">
          <mxGeometry relative="1" as="geometry">
            <Array as="points">
              <mxPoint x="1115" y="204" />
            </Array>
          </mxGeometry>
        </mxCell>
        <mxCell id="wLBLN3FvD4leMZRyrCMp-34" value="Login com OAuth" style="rounded=1;whiteSpace=wrap;html=1;fontFamily=JetBrains Mono;fontSource=https%3A%2F%2Ffonts.googleapis.com%2Fcss%3Ffamily%3DJetBrains%2BMono;fontSize=20;fontColor=default;labelBackgroundColor=none;strokeWidth=2;aspect=fixed;" parent="1" vertex="1">
          <mxGeometry x="1070" y="275" width="150" height="75" as="geometry" />
        </mxCell>
        <mxCell id="wLBLN3FvD4leMZRyrCMp-39" style="edgeStyle=orthogonalEdgeStyle;rounded=1;orthogonalLoop=1;jettySize=auto;html=1;strokeWidth=2;fontFamily=JetBrains Mono;fontSource=https%3A%2F%2Ffonts.googleapis.com%2Fcss%3Ffamily%3DJetBrains%2BMono;fontSize=20;fontColor=default;entryX=0.005;entryY=0.184;entryDx=0;entryDy=0;entryPerimeter=0;" parent="1" source="wLBLN3FvD4leMZRyrCMp-37" target="wLBLN3FvD4leMZRyrCMp-1" edge="1">
          <mxGeometry relative="1" as="geometry">
            <mxPoint x="380" y="215" as="targetPoint" />
            <Array as="points">
              <mxPoint x="305" y="199" />
            </Array>
          </mxGeometry>
        </mxCell>
        <mxCell id="wLBLN3FvD4leMZRyrCMp-37" value="Registro com OAuth" style="rounded=1;whiteSpace=wrap;html=1;fontFamily=JetBrains Mono;fontSource=https%3A%2F%2Ffonts.googleapis.com%2Fcss%3Ffamily%3DJetBrains%2BMono;fontSize=20;fontColor=default;labelBackgroundColor=none;strokeWidth=2;aspect=fixed;" parent="1" vertex="1">
          <mxGeometry x="220" y="275" width="150" height="75" as="geometry" />
        </mxCell>
        <mxCell id="wLBLN3FvD4leMZRyrCMp-45" style="edgeStyle=orthogonalEdgeStyle;rounded=1;orthogonalLoop=1;jettySize=auto;html=1;strokeWidth=2;fontFamily=JetBrains Mono;fontSource=https%3A%2F%2Ffonts.googleapis.com%2Fcss%3Ffamily%3DJetBrains%2BMono;fontSize=20;fontColor=default;" parent="1" source="wLBLN3FvD4leMZRyrCMp-42" target="wLBLN3FvD4leMZRyrCMp-44" edge="1">
          <mxGeometry relative="1" as="geometry" />
        </mxCell>
        <mxCell id="wLBLN3FvD4leMZRyrCMp-42" value="Editar perfil" style="rounded=1;whiteSpace=wrap;html=1;fontFamily=JetBrains Mono;fontSource=https%3A%2F%2Ffonts.googleapis.com%2Fcss%3Ffamily%3DJetBrains%2BMono;fontSize=20;fontColor=default;labelBackgroundColor=none;strokeWidth=2;aspect=fixed;" parent="1" vertex="1">
          <mxGeometry x="420" y="427.5" width="150" height="75" as="geometry" />
        </mxCell>
        <mxCell id="wLBLN3FvD4leMZRyrCMp-47" style="edgeStyle=orthogonalEdgeStyle;rounded=1;orthogonalLoop=1;jettySize=auto;html=1;strokeWidth=2;fontFamily=JetBrains Mono;fontSource=https%3A%2F%2Ffonts.googleapis.com%2Fcss%3Ffamily%3DJetBrains%2BMono;fontSize=20;fontColor=none;" parent="1" source="wLBLN3FvD4leMZRyrCMp-44" target="wLBLN3FvD4leMZRyrCMp-46" edge="1">
          <mxGeometry relative="1" as="geometry" />
        </mxCell>
        <mxCell id="wLBLN3FvD4leMZRyrCMp-44" value="Deletar conta" style="rounded=1;whiteSpace=wrap;html=1;fontFamily=JetBrains Mono;fontSource=https%3A%2F%2Ffonts.googleapis.com%2Fcss%3Ffamily%3DJetBrains%2BMono;fontSize=20;fontColor=default;labelBackgroundColor=none;strokeWidth=2;aspect=fixed;" parent="1" vertex="1">
          <mxGeometry x="220" y="427.5" width="150" height="75" as="geometry" />
        </mxCell>
        <mxCell id="wLBLN3FvD4leMZRyrCMp-46" value="" style="ellipse;shape=endState;fillColor=#000000;strokeColor=#FFFFFF;rounded=1;labelBackgroundColor=none;strokeWidth=2;fontFamily=JetBrains Mono;fontSource=https%3A%2F%2Ffonts.googleapis.com%2Fcss%3Ffamily%3DJetBrains%2BMono;fontSize=20;fontColor=none;noLabel=1;aspect=fixed;" parent="1" vertex="1">
          <mxGeometry x="270" y="592.5" width="50" height="50" as="geometry" />
        </mxCell>
        <mxCell id="wLBLN3FvD4leMZRyrCMp-51" style="edgeStyle=orthogonalEdgeStyle;rounded=1;orthogonalLoop=1;jettySize=auto;html=1;strokeWidth=2;fontFamily=JetBrains Mono;fontSource=https%3A%2F%2Ffonts.googleapis.com%2Fcss%3Ffamily%3DJetBrains%2BMono;fontSize=20;fontColor=none;" parent="1" source="wLBLN3FvD4leMZRyrCMp-48" target="wLBLN3FvD4leMZRyrCMp-46" edge="1">
          <mxGeometry relative="1" as="geometry" />
        </mxCell>
        <mxCell id="wLBLN3FvD4leMZRyrCMp-48" value="Rank dos +ricos" style="rounded=1;whiteSpace=wrap;html=1;fontFamily=JetBrains Mono;fontSource=https%3A%2F%2Ffonts.googleapis.com%2Fcss%3Ffamily%3DJetBrains%2BMono;fontSize=20;fontColor=default;labelBackgroundColor=none;strokeWidth=2;aspect=fixed;" parent="1" vertex="1">
          <mxGeometry x="420" y="580" width="150" height="75" as="geometry" />
        </mxCell>
        <mxCell id="wLBLN3FvD4leMZRyrCMp-55" style="edgeStyle=orthogonalEdgeStyle;rounded=1;orthogonalLoop=1;jettySize=auto;html=1;strokeWidth=2;fontFamily=JetBrains Mono;fontSource=https%3A%2F%2Ffonts.googleapis.com%2Fcss%3Ffamily%3DJetBrains%2BMono;fontSize=20;fontColor=none;" parent="1" source="wLBLN3FvD4leMZRyrCMp-52" target="wLBLN3FvD4leMZRyrCMp-54" edge="1">
          <mxGeometry relative="1" as="geometry" />
        </mxCell>
        <mxCell id="wLBLN3FvD4leMZRyrCMp-58" style="edgeStyle=orthogonalEdgeStyle;rounded=1;orthogonalLoop=1;jettySize=auto;html=1;strokeWidth=2;fontFamily=JetBrains Mono;fontSource=https%3A%2F%2Ffonts.googleapis.com%2Fcss%3Ffamily%3DJetBrains%2BMono;fontSize=20;fontColor=none;" parent="1" source="wLBLN3FvD4leMZRyrCMp-52" target="wLBLN3FvD4leMZRyrCMp-57" edge="1">
          <mxGeometry relative="1" as="geometry">
            <Array as="points">
              <mxPoint x="400" y="962" />
              <mxPoint x="400" y="1076" />
            </Array>
          </mxGeometry>
        </mxCell>
        <mxCell id="9fFekz7WtnFR7h1ZeHvl-8" style="edgeStyle=orthogonalEdgeStyle;rounded=1;orthogonalLoop=1;jettySize=auto;html=1;strokeWidth=2;" edge="1" parent="1" source="wLBLN3FvD4leMZRyrCMp-52" target="9fFekz7WtnFR7h1ZeHvl-7">
          <mxGeometry relative="1" as="geometry">
            <Array as="points">
              <mxPoint x="400" y="962" />
              <mxPoint x="400" y="1240" />
            </Array>
          </mxGeometry>
        </mxCell>
        <mxCell id="9fFekz7WtnFR7h1ZeHvl-13" style="edgeStyle=orthogonalEdgeStyle;rounded=1;orthogonalLoop=1;jettySize=auto;html=1;strokeWidth=2;" edge="1" parent="1" source="wLBLN3FvD4leMZRyrCMp-52" target="9fFekz7WtnFR7h1ZeHvl-12">
          <mxGeometry relative="1" as="geometry">
            <Array as="points">
              <mxPoint x="400" y="962" />
              <mxPoint x="400" y="1390" />
            </Array>
          </mxGeometry>
        </mxCell>
        <mxCell id="wLBLN3FvD4leMZRyrCMp-52" value="Minhas empresas" style="rounded=1;whiteSpace=wrap;html=1;fontFamily=JetBrains Mono;fontSource=https%3A%2F%2Ffonts.googleapis.com%2Fcss%3Ffamily%3DJetBrains%2BMono;fontSize=20;fontColor=default;labelBackgroundColor=none;strokeWidth=2;aspect=fixed;flipV=0;" parent="1" vertex="1">
          <mxGeometry x="420" y="925" width="150" height="75" as="geometry" />
        </mxCell>
        <mxCell id="wLBLN3FvD4leMZRyrCMp-56" style="edgeStyle=orthogonalEdgeStyle;rounded=1;orthogonalLoop=1;jettySize=auto;html=1;strokeWidth=2;fontFamily=JetBrains Mono;fontSource=https%3A%2F%2Ffonts.googleapis.com%2Fcss%3Ffamily%3DJetBrains%2BMono;fontSize=20;fontColor=none;" parent="1" source="wLBLN3FvD4leMZRyrCMp-54" target="wLBLN3FvD4leMZRyrCMp-52" edge="1">
          <mxGeometry relative="1" as="geometry" />
        </mxCell>
        <mxCell id="9fFekz7WtnFR7h1ZeHvl-5" style="edgeStyle=orthogonalEdgeStyle;rounded=1;orthogonalLoop=1;jettySize=auto;html=1;strokeWidth=2;fontFamily=JetBrains Mono;fontSource=https%3A%2F%2Ffonts.googleapis.com%2Fcss%3Ffamily%3DJetBrains%2BMono;" edge="1" parent="1" source="wLBLN3FvD4leMZRyrCMp-54" target="9fFekz7WtnFR7h1ZeHvl-3">
          <mxGeometry relative="1" as="geometry" />
        </mxCell>
        <mxCell id="wLBLN3FvD4leMZRyrCMp-54" value="Criar empresa" style="rounded=1;whiteSpace=wrap;html=1;fontFamily=JetBrains Mono;fontSource=https%3A%2F%2Ffonts.googleapis.com%2Fcss%3Ffamily%3DJetBrains%2BMono;fontSize=20;fontColor=default;labelBackgroundColor=none;strokeWidth=2;aspect=fixed;flipV=0;" parent="1" vertex="1">
          <mxGeometry x="220" y="882" width="150" height="75" as="geometry" />
        </mxCell>
        <mxCell id="wLBLN3FvD4leMZRyrCMp-59" style="edgeStyle=orthogonalEdgeStyle;rounded=1;orthogonalLoop=1;jettySize=auto;html=1;strokeWidth=2;fontFamily=JetBrains Mono;fontSource=https%3A%2F%2Ffonts.googleapis.com%2Fcss%3Ffamily%3DJetBrains%2BMono;fontSize=20;fontColor=none;" parent="1" source="wLBLN3FvD4leMZRyrCMp-57" target="wLBLN3FvD4leMZRyrCMp-52" edge="1">
          <mxGeometry relative="1" as="geometry">
            <Array as="points">
              <mxPoint x="495" y="1095" />
            </Array>
          </mxGeometry>
        </mxCell>
        <mxCell id="9fFekz7WtnFR7h1ZeHvl-4" style="edgeStyle=orthogonalEdgeStyle;rounded=1;orthogonalLoop=1;jettySize=auto;html=1;strokeWidth=2;fontFamily=JetBrains Mono;fontSource=https%3A%2F%2Ffonts.googleapis.com%2Fcss%3Ffamily%3DJetBrains%2BMono;" edge="1" parent="1" source="wLBLN3FvD4leMZRyrCMp-57" target="9fFekz7WtnFR7h1ZeHvl-3">
          <mxGeometry relative="1" as="geometry">
            <Array as="points">
              <mxPoint x="105" y="1076" />
            </Array>
          </mxGeometry>
        </mxCell>
        <mxCell id="wLBLN3FvD4leMZRyrCMp-57" value="Fazer IPO na empresa (vender ações)" style="rounded=1;whiteSpace=wrap;html=1;fontFamily=JetBrains Mono;fontSource=https%3A%2F%2Ffonts.googleapis.com%2Fcss%3Ffamily%3DJetBrains%2BMono;fontSize=20;fontColor=default;labelBackgroundColor=none;strokeWidth=2;flipV=0;" parent="1" vertex="1">
          <mxGeometry x="210" y="1021" width="170" height="110" as="geometry" />
        </mxCell>
        <mxCell id="9fFekz7WtnFR7h1ZeHvl-6" style="edgeStyle=orthogonalEdgeStyle;rounded=1;orthogonalLoop=1;jettySize=auto;html=1;strokeWidth=2;fontFamily=JetBrains Mono;fontSource=https%3A%2F%2Ffonts.googleapis.com%2Fcss%3Ffamily%3DJetBrains%2BMono;" edge="1" parent="1" source="9fFekz7WtnFR7h1ZeHvl-1" target="9fFekz7WtnFR7h1ZeHvl-3">
          <mxGeometry relative="1" as="geometry">
            <Array as="points">
              <mxPoint x="105" y="763" />
            </Array>
          </mxGeometry>
        </mxCell>
        <mxCell id="9fFekz7WtnFR7h1ZeHvl-1" value="Vender ações" style="rounded=1;whiteSpace=wrap;html=1;fontFamily=JetBrains Mono;fontSource=https%3A%2F%2Ffonts.googleapis.com%2Fcss%3Ffamily%3DJetBrains%2BMono;fontSize=20;fontColor=default;labelBackgroundColor=none;strokeWidth=2;aspect=fixed;flipV=0;" vertex="1" parent="1">
          <mxGeometry x="220" y="725" width="150" height="75" as="geometry" />
        </mxCell>
        <mxCell id="9fFekz7WtnFR7h1ZeHvl-3" value="" style="ellipse;shape=endState;fillColor=#000000;strokeColor=#FFFFFF;rounded=1;labelBackgroundColor=none;strokeWidth=2;fontFamily=JetBrains Mono;fontSource=https%3A%2F%2Ffonts.googleapis.com%2Fcss%3Ffamily%3DJetBrains%2BMono;fontSize=20;fontColor=none;noLabel=1;aspect=fixed;" vertex="1" parent="1">
          <mxGeometry x="80" y="1131" width="50" height="50" as="geometry" />
        </mxCell>
        <mxCell id="9fFekz7WtnFR7h1ZeHvl-17" style="edgeStyle=orthogonalEdgeStyle;rounded=1;orthogonalLoop=1;jettySize=auto;html=1;strokeWidth=2;" edge="1" parent="1" source="9fFekz7WtnFR7h1ZeHvl-7" target="9fFekz7WtnFR7h1ZeHvl-3">
          <mxGeometry relative="1" as="geometry" />
        </mxCell>
        <mxCell id="9fFekz7WtnFR7h1ZeHvl-7" value="Coletar e distribuir lucro" style="rounded=1;whiteSpace=wrap;html=1;fontFamily=JetBrains Mono;fontSource=https%3A%2F%2Ffonts.googleapis.com%2Fcss%3Ffamily%3DJetBrains%2BMono;fontSize=20;fontColor=default;labelBackgroundColor=none;strokeWidth=2;flipV=0;" vertex="1" parent="1">
          <mxGeometry x="210" y="1178" width="170" height="110" as="geometry" />
        </mxCell>
        <mxCell id="9fFekz7WtnFR7h1ZeHvl-18" style="edgeStyle=orthogonalEdgeStyle;rounded=1;orthogonalLoop=1;jettySize=auto;html=1;strokeWidth=2;" edge="1" parent="1" source="9fFekz7WtnFR7h1ZeHvl-12" target="9fFekz7WtnFR7h1ZeHvl-3">
          <mxGeometry relative="1" as="geometry" />
        </mxCell>
        <mxCell id="9fFekz7WtnFR7h1ZeHvl-12" value="Reinvestir lucros" style="rounded=1;whiteSpace=wrap;html=1;fontFamily=JetBrains Mono;fontSource=https%3A%2F%2Ffonts.googleapis.com%2Fcss%3Ffamily%3DJetBrains%2BMono;fontSize=20;fontColor=default;labelBackgroundColor=none;strokeWidth=2;flipV=0;" vertex="1" parent="1">
          <mxGeometry x="210" y="1335" width="170" height="110" as="geometry" />
        </mxCell>
        <mxCell id="9fFekz7WtnFR7h1ZeHvl-16" style="edgeStyle=orthogonalEdgeStyle;rounded=1;orthogonalLoop=1;jettySize=auto;html=1;strokeWidth=2;" edge="1" parent="1" source="9fFekz7WtnFR7h1ZeHvl-14" target="wLBLN3FvD4leMZRyrCMp-33">
          <mxGeometry relative="1" as="geometry" />
        </mxCell>
        <mxCell id="9fFekz7WtnFR7h1ZeHvl-14" value="Comprar ações" style="rounded=1;whiteSpace=wrap;html=1;fontFamily=JetBrains Mono;fontSource=https%3A%2F%2Ffonts.googleapis.com%2Fcss%3Ffamily%3DJetBrains%2BMono;fontSize=20;fontColor=default;labelBackgroundColor=none;strokeWidth=2;aspect=fixed;flipV=0;" vertex="1" parent="1">
          <mxGeometry x="1070" y="775" width="150" height="75" as="geometry" />
        </mxCell>
      </root>
    </mxGraphModel>
  </diagram>
</mxfile>
